<?xml version="1.0" ?><!DOCTYPE svg  PUBLIC '-//W3C//DTD SVG 1.1//EN'  'http://www.w3.org/Graphics/SVG/1.1/DTD/svg11.dtd'><svg enable-background="new 0 0 512 512" id="Layer_1" version="1.1" viewBox="0 0 512 512" xml:space="preserve" xmlns="http://www.w3.org/2000/svg" xmlns:xlink="http://www.w3.org/1999/xlink"><g><g><path d="M277.8,307.4c-13.2,0-25.4-4.7-35-11.5c-4.1-2.9-5-8.5-2.2-12.5c2.9-4.1,8.5-5,12.5-2.2    c9.2,6.5,33.6,18.6,60.4-9.9c22.6-23.7,28.6-56.8,15.9-86.6c-12.8-29.8-41-48.3-73.8-48.3c-43.9,0-79.6,35.9-79.6,80    c0,11.9,2.4,23.2,7.2,33.4c2.1,4.5,0.2,9.9-4.3,12c-4.5,2.1-9.9,0.2-12-4.3c-5.9-12.7-8.9-26.5-8.9-41c0-54,43.8-98,97.6-98    c40.1,0,74.7,22.7,90.3,59.2c15.6,36.5,8.2,77.1-19.3,106C310.5,300.9,293.4,307.4,277.8,307.4z" fill="#FC2B36"/><path d="M196.6,393.5c-0.8,0-1.5-0.1-2.3-0.3c-4.8-1.3-7.7-6.2-6.4-11L237,197.7c1.3-4.8,6.2-7.7,11-6.4    c4.8,1.3,7.7,6.2,6.4,11l-49.1,184.6C204.2,390.9,200.5,393.5,196.6,393.5z" fill="#FC2B36"/></g></g></svg>