<?xml version="1.0" ?><!DOCTYPE svg  PUBLIC '-//W3C//DTD SVG 1.1//EN'  'http://www.w3.org/Graphics/SVG/1.1/DTD/svg11.dtd'><svg enable-background="new 0 0 512 512" id="Layer_1" version="1.1" viewBox="0 0 512 512" xml:space="preserve" xmlns="http://www.w3.org/2000/svg" xmlns:xlink="http://www.w3.org/1999/xlink"><g><g><path d="M291.4,310.4c-0.4,0-0.9,0-1.3-0.1c-49.8-7.4-79.5-33.3-93.4-81.6c-0.6-2.2-0.4-4.5,0.6-6.5l3.5-7    c1.5-3,4.5-4.9,7.8-5c3.3-0.1,6.4,1.7,8.1,4.6l14.3,25.6c2.4,4.3,0.9,9.8-3.5,12.2c-0.3,0.2-0.6,0.3-0.9,0.4    c8.4,13.4,19.4,23.3,33.7,30c0.1-0.5,0.2-1.1,0.4-1.6c1.6-4.7,6.7-7.2,11.4-5.6l32.1,10.9c3.3,1.1,5.7,4.1,6.1,7.5    c0.4,3.5-1.3,6.9-4.3,8.7l-10,6.1C294.7,310,293,310.4,291.4,310.4z" fill="#25D366"/><path d="M256.2,393.4c-28.6,0-55.8-8.5-78.6-24.7c-4.1-2.9-5-8.5-2.1-12.5s8.5-5,12.5-2.1    c19.7,14,43.3,21.4,68.2,21.4c65.7,0,119.2-53.5,119.2-119.2c0-65.9-53.5-119.6-119.2-119.6c-65.9,0-119.6,53.7-119.6,119.6    c0,22,6.1,43.5,17.7,62.1c0,0.1,0.1,0.1,0.1,0.2c0.6,1,1,2.1,1.2,3.2c0.2,1.1,0.1,2.3-0.2,3.5c0,0,0,0,0,0c0,0,0,0,0,0    c0,0,0,0,0,0.1l-14.3,56.9c-1.2,4.8-6.1,7.7-10.9,6.5c-4.8-1.2-7.7-6.1-6.5-10.9l13.4-53.3c-12.1-20.7-18.5-44.3-18.5-68.3    c0-75.9,61.7-137.6,137.6-137.6c75.6,0,137.2,61.7,137.2,137.6C393.4,331.8,331.8,393.4,256.2,393.4z" fill="#25D366"/></g></g></svg>