<?xml version="1.0" ?><!DOCTYPE svg  PUBLIC '-//W3C//DTD SVG 1.1//EN'  'http://www.w3.org/Graphics/SVG/1.1/DTD/svg11.dtd'><svg enable-background="new 0 0 512 512" id="Layer_1" version="1.1" viewBox="0 0 512 512" xml:space="preserve" xmlns="http://www.w3.org/2000/svg" xmlns:xlink="http://www.w3.org/1999/xlink"><g><g><path d="M186.2,350.8c-25.4,0-49.3-9.9-67.2-27.8c-17.9-17.9-27.8-41.8-27.8-67.2c0-52.1,42.6-94.6,94.9-94.6    c24.3,0,47.3,9.2,64.9,25.9c3.6,3.4,3.7,9.1,0.3,12.7c-3.4,3.6-9.1,3.8-12.7,0.3c-14.2-13.5-32.9-20.9-52.5-20.9    c-42.4,0-76.9,34.3-76.9,76.6c0,42.4,34.5,76.9,76.9,76.9c27.8,0,53.6-15.2,67.4-39.6c2.4-4.3,7.9-5.9,12.3-3.4    c4.3,2.4,5.9,7.9,3.4,12.3C252.2,332.1,220.4,350.8,186.2,350.8z M271.7,273.2h-78.7c-5,0-9-4-9-9s4-9,9-9h78.7c5,0,9,4,9,9    S276.7,273.2,271.7,273.2z" fill="#E1584B"/><path d="M363.4,322c-5,0-9-4-9-9v-97.1c0-5,4-9,9-9s9,4,9,9V313C372.4,317.9,368.4,322,363.4,322z" fill="#E1584B"/><path d="M411.8,273.2h-97.1c-5,0-9-4-9-9s4-9,9-9h97.1c5,0,9,4,9,9S416.7,273.2,411.8,273.2z" fill="#E1584B"/></g></g></svg>